<?xml version="1.0" encoding="UTF-8"?>
<svg version="1.1" xmlns="http://www.w3.org/2000/svg" width="512" height="512">
<path d="M0 0 C1.36344334 -0.00346793 2.72688387 -0.00824002 4.09031868 -0.01418173 C7.79006702 -0.02656582 11.48957963 -0.02057973 15.18932819 -0.01122308 C19.19758415 -0.00438055 23.20580211 -0.01493936 27.21405029 -0.02316284 C35.04770911 -0.03644734 42.88128131 -0.03364613 50.71494341 -0.02492492 C57.08603147 -0.01812787 63.45709539 -0.01724036 69.82818604 -0.02049637 C71.19244506 -0.02118592 71.19244506 -0.02118592 72.58426487 -0.0218894 C74.4323659 -0.02284865 76.28046692 -0.02382129 78.12856793 -0.02480717 C95.42601653 -0.03334559 112.7234173 -0.0235513 130.02085805 -0.00740607 C144.83733425 0.0059957 159.65373992 0.00366717 174.47021484 -0.01016235 C191.70912015 -0.02624559 208.94798361 -0.03252176 226.18689537 -0.02332556 C228.02789687 -0.02236999 229.86889839 -0.02142688 231.7098999 -0.02049637 C232.61552079 -0.02003354 233.52114168 -0.01957072 234.45420563 -0.01909386 C240.81178621 -0.0165122 247.16934007 -0.02085714 253.5269165 -0.02793503 C261.2830619 -0.03638078 269.0391163 -0.03400559 276.79525137 -0.0180928 C280.74653469 -0.01025124 284.69766674 -0.00704747 288.64894867 -0.01704025 C292.27606908 -0.02607396 295.90290005 -0.02091411 299.52999473 -0.0051076 C301.44187262 -0.00024472 303.35377112 -0.00987804 305.26562691 -0.02027929 C333.07795717 0.16566716 357.15248179 12.22569324 377.33154297 30.88485718 C397.06215816 51.089766 407.30279211 77.52603036 407.1499939 105.61190796 C407.15346183 106.9753513 407.15823392 108.33879183 407.16417563 109.70222664 C407.17655971 113.40197498 407.17057363 117.10148759 407.16121697 120.80123615 C407.15437445 124.80949211 407.16493326 128.81771007 407.17315674 132.82595825 C407.18644124 140.65961707 407.18364002 148.49318927 407.17491882 156.32685137 C407.16812176 162.69793943 407.16723426 169.06900334 407.17049026 175.44009399 C407.17094996 176.34960001 407.17140966 177.25910603 407.17188329 178.19617283 C407.17284255 180.04427386 407.17381519 181.89237488 407.17480107 183.74047589 C407.18333948 201.03792449 407.17354519 218.33532526 407.15739997 235.63276601 C407.1439982 250.44924221 407.14632673 265.26564787 407.16015625 280.0821228 C407.17623949 297.32102811 407.18251565 314.55989157 407.17331946 331.79880333 C407.17236389 333.63980483 407.17142078 335.48080634 407.17049026 337.32180786 C407.17002744 338.22742875 407.16956461 339.13304964 407.16908776 340.06611359 C407.16650609 346.42369417 407.17085104 352.78124803 407.17792892 359.13882446 C407.18637468 366.89496985 407.18399949 374.65102425 407.16808669 382.40715933 C407.16024514 386.35844265 407.15704137 390.3095747 407.16703415 394.26085663 C407.17606785 397.88797704 407.170908 401.514808 407.15510149 405.14190269 C407.15023862 407.05378058 407.15987194 408.96567908 407.17027318 410.87753487 C406.98432674 438.68986513 394.92430066 462.76438975 376.26513672 482.94345093 C356.0602279 502.67406612 329.62396354 512.91470007 301.53808594 512.76190186 C300.17464259 512.76536978 298.81120207 512.77014188 297.44776726 512.77608359 C293.74801892 512.78846767 290.04850631 512.78248158 286.34875774 512.77312493 C282.34050178 512.76628241 278.33228382 512.77684121 274.32403564 512.7850647 C266.49037683 512.79834919 258.65680463 512.79554798 250.82314253 512.78682677 C244.45205447 512.78002972 238.08099055 512.77914221 231.7098999 512.78239822 C230.34564088 512.78308777 230.34564088 512.78308777 228.95382106 512.78379125 C227.10572004 512.7847505 225.25761902 512.78572315 223.409518 512.78670903 C206.11206941 512.79524744 188.81466864 512.78545315 171.51722789 512.76930793 C156.70075169 512.75590616 141.88434602 512.75823469 127.06787109 512.77206421 C109.82896579 512.78814745 92.59010233 512.79442361 75.35119057 512.78522742 C73.51018906 512.78427185 71.66918755 512.78332874 69.82818604 512.78239822 C68.92256514 512.7819354 68.01694425 512.78147257 67.08388031 512.78099572 C60.72629973 512.77841405 54.36874587 512.782759 48.01116943 512.78983688 C40.25502404 512.79828264 32.49896964 512.79590745 24.74283457 512.77999465 C20.79155125 512.7721531 16.8404192 512.76894933 12.88913727 512.77894211 C9.26201686 512.78797581 5.63518589 512.78281596 2.00809121 512.76700945 C0.09621331 512.76214657 -1.81568518 512.7717799 -3.72754097 512.78218114 C-31.53987123 512.5962347 -55.61439585 500.53620862 -75.79345703 481.87704468 C-95.52407222 461.67213585 -105.76470617 435.2358715 -105.61190796 407.1499939 C-105.61537589 405.78655055 -105.62014798 404.42311002 -105.62608969 403.05967522 C-105.63847378 399.35992687 -105.63248769 395.66041427 -105.62313104 391.9606657 C-105.61628851 387.95240974 -105.62684732 383.94419178 -105.6350708 379.9359436 C-105.6483553 372.10228479 -105.64555409 364.26871259 -105.63683288 356.43505049 C-105.63003583 350.06396243 -105.62914832 343.69289851 -105.63240433 337.32180786 C-105.63286403 336.41230184 -105.63332373 335.50279583 -105.63379735 334.56572902 C-105.63475661 332.717628 -105.63572925 330.86952698 -105.63671513 329.02142596 C-105.64525354 311.72397736 -105.63545925 294.4265766 -105.61931403 277.12913585 C-105.60591226 262.31265965 -105.60824079 247.49625398 -105.62207031 232.67977905 C-105.63815355 215.44087375 -105.64442972 198.20201028 -105.63523352 180.96309853 C-105.63427795 179.12209702 -105.63333484 177.28109551 -105.63240433 175.44009399 C-105.6319415 174.5344731 -105.63147867 173.62885221 -105.63100182 172.69578826 C-105.62842016 166.33820769 -105.6327651 159.98065383 -105.63984299 153.62307739 C-105.64828874 145.866932 -105.64591355 138.1108776 -105.63000076 130.35474253 C-105.6221592 126.40345921 -105.61895543 122.45232716 -105.62894821 118.50104523 C-105.63798192 114.87392481 -105.63282207 111.24709385 -105.61701556 107.61999917 C-105.61215268 105.70812127 -105.621786 103.79622278 -105.63218725 101.88436699 C-105.4462408 74.07203673 -93.38621472 49.99751211 -74.72705078 29.81845093 C-54.52214196 10.08783574 -28.0858776 -0.15279822 0 0 Z M170.76904297 95.38095093 C158.45364274 109.06684392 150.15157407 126.84290508 149.76904297 145.38095093 C150.10699942 148.86098413 150.10699942 148.86098413 150.76904297 151.38095093 C166.66276473 152.17563702 181.48536027 145.78479036 193.47216797 135.52157593 C204.70348956 125.05428982 213.59798859 112.29074201 217.76904297 97.38095093 C217.99205078 96.59848999 218.21505859 95.81602905 218.44482422 95.00985718 C220.24604935 87.5476388 219.9520105 80.00459814 219.76904297 72.38095093 C201.20421361 71.81838034 183.46023502 82.48106507 170.76904297 95.38095093 Z M175.28466797 164.48641968 C157.09180192 171.50260666 147.34248652 171.10574503 129.23925781 164.29598999 C106.3133932 155.8035863 84.40786755 153.13936278 61.55078125 163.41928101 C38.37988114 174.51076676 24.17575692 195.1072834 15.62451172 218.51376343 C0.75288392 262.96154988 12.51585853 312.62688734 32.58154297 353.50595093 C45.01198925 378.00479165 61.86082817 404.7669236 87.76904297 416.38095093 C88.54062744 416.73495972 89.31221191 417.08896851 90.10717773 417.45370483 C101.61472945 421.46229709 113.45464764 416.77332792 124.33154297 413.00595093 C146.33963449 405.50518094 163.49853901 404.14174861 185.76904297 411.38095093 C188.33999921 412.19986281 190.91230449 413.01439391 193.48510742 413.82748413 C195.13743842 414.35140949 196.78839721 414.87968835 198.43774414 415.41293335 C210.25048947 419.20659582 220.31265593 419.84025343 231.76904297 414.38095093 C261.97942077 398.77587808 281.01391767 358.95759631 291.76904297 328.38095093 C291.76904297 327.72095093 291.76904297 327.06095093 291.76904297 326.38095093 C290.82158203 325.92268921 290.82158203 325.92268921 289.85498047 325.45516968 C271.58544572 316.10980248 257.01917268 301.97453639 250.04882812 282.35360718 C243.34529017 260.87755324 244.78841728 238.87225438 254.95654297 218.81845093 C261.64570555 206.93134035 270.43814153 197.93488522 281.76904297 190.38095093 C277.53303816 178.1700187 264.42148344 169.09897447 253.17919922 163.52548218 C226.95081263 151.78791691 201.54557674 154.3228119 175.28466797 164.48641968 Z " fill="#000000" transform="translate(105.23095703125,-0.380950927734375)"/>
</svg>
